# xmcd
#
# Track frame offsets:
#	150
#	20383
#	38012
#	47818
#	64107
#	81772
#	108637
#	122632
#	144932
#	159127
#	170751
#	188220
#	206929
#	232258
#	250597
#	263957
#	277615
#	291604
#	308287
#	324800
#	340306
#
# Disc length: 4725 seconds
#
# Revision: 0
# Processed by: cddbd v1.5.2PL0 Copyright (c) Steve Scherf et al.
# Submitted via: audiograbber 1.83.01
#
DISCID=28127315
DTITLE=SaLENA JONES - The Best Of SaLENA JONES
DYEAR=1996
DGENRE=Jazz
TTITLE0=GEORGIA ON MY MIND
TTITLE1=OLD MAN RIVER
TTITLE2=MY BLUE HEAVEN
TTITLE3=MACK THE KNIFE
TTITLE4=SUMMERTIME
TTITLE5=YOU'vE GOT A FRIEND
TTITLE6=WHAT I DID FOR LOVE
TTITLE7=BRIDGE OVER TROUBLED WATER
TTITLE8=YOU LIGHT UP MY LIFE
TTITLE9=SEND IN THE CLOWNS
TTITLE10=UNCHAINED MELODY
TTITLE11=AND I LOVE YOU SO
TTITLE12=ALL THE WAY
TTITLE13=FEELINGS
TTITLE14=AUTUMN LEAVES
TTITLE15=THE WAY WE WERE
TTITLE16=NOBODY DOES IT BETTERS
TTITLE17=YESTERDAY WHEN I WAS YOUNG
TTITLE18=MY WAY
TTITLE19=IF
TTITLE20=I CAN SEE CLEARLY NOW
EXTD=
EXTT0=
EXTT1=
EXTT2=
EXTT3=
EXTT4=
EXTT5=
EXTT6=
EXTT7=
EXTT8=
EXTT9=
EXTT10=
EXTT11=
EXTT12=
EXTT13=
EXTT14=
EXTT15=
EXTT16=
EXTT17=
EXTT18=
EXTT19=
EXTT20=
PLAYORDER=
